<svg xmlns="http://www.w3.org/2000/svg" viewBox="0 0 64 64" role="img" aria-label="Produce">
  <circle cx="24" cy="28" r="9" fill="#e2483a"/>
  <circle cx="40" cy="27" r="8" fill="#f5a01e"/>
  <circle cx="32" cy="32" r="8" fill="#6cbf4a"/>
  <path d="M37 19c0-3 2-5 5-5-1 3-2 4-4 5 2 0 4 1 5 3-3-1-5-1-6 0Z" fill="#3da35a"/>
  <path d="M12 34h40l-4 18a4 4 0 01-4 3H20a4 4 0 01-4-3Z" fill="#cf9457"/>
  <path d="M12 34h40l-4 18a4 4 0 01-4 3H20a4 4 0 01-4-3Z" fill="#a9743d" opacity=".0"/>
  <path d="M48 52l4-18H32l-1 21h13a4 4 0 004-3Z" fill="#b27e44" opacity=".55"/>
  <rect x="10" y="31" width="44" height="6" rx="3" fill="#e0b07a"/>
  <g stroke="#a9743d" stroke-width="2" opacity=".5"><path d="M22 38l-2 14M32 38l0 14M42 38l2 14"/></g>
</svg>
