<svg xmlns="http://www.w3.org/2000/svg" viewBox="0 0 64 64" role="img" aria-label="Apple">
  <path d="M32 20c-3-3-8-4-12-2-6 3-8 11-5 20 2 7 7 16 12 18 2 .8 4 .8 6 0-3-2-6-8-7-14-1-7 1-16 6-22Z" fill="#d8463a"/>
  <path d="M32 20c3-3 8-4 12-2 6 3 8 11 5 20-2 7-7 16-12 18-2 .8-4 .8-6 0 3-2 6-8 7-14 1-7-1-16-6-22Z" fill="#e85547"/>
  <path d="M44 18c6 3 8 11 5 20-2 7-7 16-12 18 5-4 8-11 9-18 1-8-1-15-2-20Z" fill="#c43c31" opacity=".5"/>
  <path d="M32 20c0-5 4-9 9-9-1 5-4 8-9 9Z" fill="#3da35a"/>
  <rect x="30.5" y="11" width="3" height="10" rx="1.5" fill="#8a5a2b"/>
</svg>
