<svg xmlns="http://www.w3.org/2000/svg" viewBox="0 0 64 64" role="img" aria-label="Peach">
  <circle cx="32" cy="38" r="22" fill="#f7a766"/>
  <path d="M32 16a22 22 0 0122 22 22 22 0 01-9 18c6-5 7-13 4-20-3-8-11-12-17-13a22 22 0 010-7Z" fill="#ef7d52" opacity=".7"/>
  <path d="M32 16c-3 6-3 12 0 22 3 8 2 14-2 19" fill="none" stroke="#e26f44" stroke-width="2.2" stroke-linecap="round" opacity=".55"/>
  <circle cx="24" cy="30" r="6" fill="#ffd0a6" opacity=".7"/>
  <path d="M33 18c-1-5 2-9 7-10-1 4-1 7-3 9 4-3 8-3 11-1-4 1-7 2-10 5-1-1-3-2-5-3Z" fill="#3da35a"/>
</svg>
