<svg xmlns="http://www.w3.org/2000/svg" viewBox="0 0 64 64" role="img" aria-label="Strawberry">
  <path d="M32 60C22 50 13 43 13 32c0-8 7-13 13-11 2 .6 4 2 6 4 2-2 4-3.4 6-4 6-2 13 3 13 11 0 11-9 18-19 28Z" fill="#e23744"/>
  <path d="M32 60c10-10 19-17 19-28 0-5-3-8.6-6.6-10C47 24 48 28 48 33c0 10-8 17-16 27Z" fill="#c4242f" opacity=".5"/>
  <g fill="#ffd35e">
    <ellipse cx="24" cy="33" rx="1.6" ry="2.4" transform="rotate(-20 24 33)"/>
    <ellipse cx="33" cy="31" rx="1.6" ry="2.4"/>
    <ellipse cx="41" cy="34" rx="1.6" ry="2.4" transform="rotate(20 41 34)"/>
    <ellipse cx="28" cy="41" rx="1.6" ry="2.4" transform="rotate(-10 28 41)"/>
    <ellipse cx="37" cy="41" rx="1.6" ry="2.4" transform="rotate(10 37 41)"/>
    <ellipse cx="32" cy="49" rx="1.5" ry="2.2"/>
  </g>
  <path d="M32 24c-1-4-4-7-9-7 3 1 4 3 5 6-3-2-7-2-10 0 4-.3 6 .8 8 3-1-3 0-2 6-2s7-1 6 2c2-2.2 4-3.3 8-3-3-2-7-2-10 0 1-3 2-5 5-6-5 0-8 3-9 7Z" fill="#3da35a"/>
  <circle cx="32" cy="22" r="2.4" fill="#2c8245"/>
</svg>
