<svg xmlns="http://www.w3.org/2000/svg" viewBox="0 0 64 64" role="img" aria-label="Tomato">
  <ellipse cx="32" cy="39" rx="23" ry="20" fill="#e2483a"/>
  <path d="M32 19c10 0 23 5 23 20 0 9-7 16-16 19 6-4 9-10 9-18 0-13-9-19-16-21Z" fill="#c5392d" opacity=".55"/>
  <ellipse cx="23" cy="32" rx="6" ry="4" fill="#f08a7f" opacity=".6"/>
  <g fill="#46a23d">
    <path d="M32 22c-1-4-4-6-8-6 2 2 3 3 3 6-3-2-6-2-9-1 3 1 5 2 6 4-3 0-2 2-2 2h20s1-2-2-2c1-2 3-3 6-4-3-1-6-1-9 1 0-3 1-4 3-6-4 0-7 2-8 6Z"/>
    <rect x="30" y="14" width="4" height="9" rx="2"/>
  </g>
</svg>
